<?xml version="1.0" encoding="utf-8"?>
<!-- Generator: Adobe Illustrator 18.0.0, SVG Export Plug-In . SVG Version: 6.00 Build 0)  -->
<!DOCTYPE svg PUBLIC "-//W3C//DTD SVG 1.1//EN" "http://www.w3.org/Graphics/SVG/1.1/DTD/svg11.dtd">
<svg version="1.1" xmlns="http://www.w3.org/2000/svg" xmlns:xlink="http://www.w3.org/1999/xlink" x="0px" y="0px"
	 viewBox="0 0 185 122.6" enable-background="new 0 0 185 122.6" xml:space="preserve">
<g id="logo-light">
	<g>
		<g>
			<path fill="#E6E6E5" d="M1.1,83.8c0-1.6,0.3-3,0.8-4.3C2.4,78.2,3.1,77,4,76s2.1-1.8,3.4-2.3c1.3-0.6,2.7-0.9,4.3-0.9
				c1.2,0,2.2,0.2,3.2,0.5c1,0.3,1.9,0.9,2.8,1.7v-1.8H23v21.3h-5.3v-1.8c-0.9,0.8-1.8,1.4-2.8,1.7c-1,0.3-2,0.5-3.2,0.5
				c-1.6,0-3-0.3-4.3-0.9C6.1,93.5,5,92.7,4,91.7c-0.9-1-1.7-2.2-2.2-3.5C1.3,86.8,1.1,85.4,1.1,83.8z M12.4,89.9
				c0.4,0,0.9,0,1.3-0.1c0.5-0.1,0.9-0.2,1.4-0.5c0.5-0.2,0.9-0.5,1.4-0.9c0.4-0.4,0.9-0.8,1.3-1.3v-6.6c-0.4-0.5-0.8-1-1.3-1.3
				c-0.4-0.4-0.9-0.6-1.4-0.9c-0.5-0.2-0.9-0.4-1.4-0.5c-0.5-0.1-0.9-0.1-1.3-0.1c-0.8,0-1.6,0.2-2.3,0.5c-0.7,0.3-1.3,0.7-1.9,1.3
				C7.7,80,7.3,80.7,7,81.4c-0.3,0.7-0.4,1.5-0.4,2.4s0.1,1.7,0.4,2.4c0.3,0.7,0.7,1.4,1.2,1.9c0.5,0.5,1.1,1,1.9,1.3
				C10.8,89.8,11.6,89.9,12.4,89.9z"/>
			<path fill="#E6E6E5" d="M27.3,73.2h5.3V75c0.7-0.7,1.5-1.2,2.4-1.6c0.9-0.4,2-0.6,3.1-0.6c1.3,0,2.6,0.3,3.7,0.8
				c1.1,0.5,2,1.2,2.8,2.1c0.8,0.9,1.4,1.9,1.8,3.1c0.4,1.2,0.6,2.5,0.6,3.8v11.9h-5.3V82.4c0-0.6-0.1-1.2-0.4-1.8
				c-0.2-0.6-0.6-1.1-1-1.5s-0.9-0.8-1.4-1c-0.6-0.2-1.1-0.4-1.8-0.4c-0.6,0-1.2,0.1-1.8,0.4c-0.6,0.2-1,0.6-1.5,1
				c-0.4,0.4-0.7,0.9-1,1.5c-0.2,0.6-0.4,1.2-0.4,1.8v12.1h-5.3V73.2z"/>
			<path fill="#E6E6E5" d="M49.8,83.8c0-1.6,0.3-3,0.8-4.3c0.5-1.3,1.2-2.5,2.2-3.5s2.1-1.8,3.4-2.3c1.3-0.6,2.7-0.9,4.3-0.9
				c1.2,0,2.3,0.2,3.2,0.5c1,0.3,1.9,0.9,2.8,1.7v-8.2h5.3v27.6h-5.3v-1.8c-0.9,0.8-1.8,1.4-2.8,1.7c-1,0.3-2,0.5-3.2,0.5
				c-1.6,0-3-0.3-4.3-0.9c-1.3-0.6-2.4-1.3-3.4-2.3c-0.9-1-1.7-2.2-2.2-3.5C50.1,86.8,49.8,85.4,49.8,83.8z M61.1,89.9
				c0.4,0,0.9,0,1.3-0.1c0.5-0.1,0.9-0.2,1.4-0.5c0.5-0.2,0.9-0.5,1.4-0.9c0.4-0.4,0.9-0.8,1.3-1.3v-6.6c-0.4-0.5-0.8-1-1.3-1.3
				c-0.4-0.4-0.9-0.6-1.4-0.9c-0.5-0.2-0.9-0.4-1.4-0.5c-0.5-0.1-0.9-0.1-1.3-0.1c-0.8,0-1.6,0.2-2.3,0.5c-0.7,0.3-1.3,0.7-1.9,1.3
				c-0.5,0.5-0.9,1.2-1.2,1.9c-0.3,0.7-0.4,1.5-0.4,2.4s0.1,1.7,0.4,2.4c0.3,0.7,0.7,1.4,1.2,1.9c0.5,0.5,1.1,1,1.9,1.3
				C59.5,89.8,60.3,89.9,61.1,89.9z"/>
			<path fill="#E6E6E5" d="M76,73.2h5.3v2.2c0.6-0.8,1.3-1.5,2.2-1.9c0.9-0.5,2-0.7,3.3-0.7h0.6v5.4h-1.5c-0.7,0-1.4,0.1-2,0.4
				c-0.6,0.2-1,0.6-1.4,1c-0.4,0.4-0.7,0.9-0.9,1.5c-0.2,0.6-0.3,1.2-0.3,1.8v11.7H76V73.2z"/>
			<path fill="#E6E6E5" d="M99.5,94.9c-1.5,0-3-0.3-4.3-0.8c-1.4-0.6-2.5-1.3-3.6-2.3c-1-1-1.8-2.2-2.4-3.5
				c-0.6-1.3-0.9-2.8-0.9-4.4c0-1.5,0.3-3,0.9-4.3c0.6-1.3,1.4-2.5,2.4-3.5c1-1,2.2-1.8,3.6-2.4c1.4-0.6,2.8-0.9,4.4-0.9
				s3,0.3,4.3,0.9c1.4,0.6,2.5,1.4,3.6,2.4c1,1,1.8,2.2,2.4,3.5c0.6,1.3,0.9,2.8,0.9,4.3c0,1.6-0.3,3-0.9,4.4
				c-0.6,1.3-1.4,2.5-2.4,3.5c-1,1-2.2,1.8-3.6,2.3C102.5,94.6,101.1,94.9,99.5,94.9z M99.5,89.9c0.8,0,1.5-0.1,2.2-0.4
				c0.7-0.3,1.3-0.7,1.8-1.3c0.5-0.5,0.9-1.2,1.2-1.9c0.3-0.7,0.4-1.6,0.4-2.5c0-0.9-0.2-1.7-0.5-2.4c-0.3-0.7-0.7-1.4-1.2-1.9
				c-0.5-0.5-1.1-1-1.8-1.3c-0.7-0.3-1.4-0.5-2.2-0.5c-0.8,0-1.5,0.2-2.2,0.5c-0.7,0.3-1.3,0.7-1.8,1.3c-0.5,0.5-0.9,1.2-1.2,1.9
				c-0.3,0.7-0.5,1.6-0.5,2.4c0,0.9,0.1,1.7,0.4,2.5c0.3,0.7,0.7,1.4,1.2,1.9c0.5,0.5,1.1,1,1.8,1.3C98,89.8,98.7,89.9,99.5,89.9z"
				/>
			<path fill="#E6E6E5" d="M116.5,70.8c-0.4,0-0.9-0.1-1.3-0.3c-0.4-0.2-0.7-0.4-1-0.7c-0.3-0.3-0.5-0.6-0.7-1
				c-0.2-0.4-0.3-0.8-0.3-1.3c0-0.4,0.1-0.9,0.3-1.3c0.2-0.4,0.4-0.8,0.7-1c0.3-0.3,0.6-0.5,1-0.7c0.4-0.2,0.8-0.3,1.3-0.3
				s0.9,0.1,1.3,0.3c0.4,0.2,0.8,0.4,1,0.7c0.3,0.3,0.5,0.6,0.7,1c0.2,0.4,0.3,0.8,0.3,1.3c0,0.4-0.1,0.9-0.3,1.3
				c-0.2,0.4-0.4,0.7-0.7,1c-0.3,0.3-0.6,0.5-1,0.7C117.3,70.7,116.9,70.8,116.5,70.8z M113.8,73.2h5.3v21.3h-5.3V73.2z"/>
			<path fill="#E6E6E5" d="M122.2,83.8c0-1.6,0.3-3,0.8-4.3c0.5-1.3,1.2-2.5,2.2-3.5c0.9-1,2.1-1.8,3.4-2.3c1.3-0.6,2.7-0.9,4.3-0.9
				c1.2,0,2.2,0.2,3.2,0.5c1,0.3,1.9,0.9,2.8,1.7v-8.2h5.3v27.6h-5.3v-1.8c-0.9,0.8-1.8,1.4-2.8,1.7c-1,0.3-2,0.5-3.2,0.5
				c-1.6,0-3-0.3-4.3-0.9c-1.3-0.6-2.4-1.3-3.4-2.3c-0.9-1-1.7-2.2-2.2-3.5C122.5,86.8,122.2,85.4,122.2,83.8z M133.5,89.9
				c0.4,0,0.9,0,1.3-0.1c0.5-0.1,0.9-0.2,1.4-0.5c0.5-0.2,0.9-0.5,1.4-0.9c0.4-0.4,0.9-0.8,1.3-1.3v-6.6c-0.4-0.5-0.8-1-1.3-1.3
				c-0.4-0.4-0.9-0.6-1.4-0.9c-0.5-0.2-0.9-0.4-1.4-0.5c-0.5-0.1-0.9-0.1-1.3-0.1c-0.8,0-1.6,0.2-2.3,0.5c-0.7,0.3-1.3,0.7-1.9,1.3
				c-0.5,0.5-0.9,1.2-1.2,1.9c-0.3,0.7-0.4,1.5-0.4,2.4s0.1,1.7,0.4,2.4c0.3,0.7,0.7,1.4,1.2,1.9c0.5,0.5,1.1,1,1.9,1.3
				C131.9,89.8,132.7,89.9,133.5,89.9z"/>
		</g>
		<g>
			<path fill="#E6E6E5" d="M2.4,116.7v-18h6.7c2.6,0,4.8,0.9,6.6,2.6c1.8,1.7,2.7,3.9,2.7,6.4c0,2.5-0.9,4.7-2.7,6.4
				c-1.8,1.7-4,2.6-6.6,2.6H2.4z M8.8,99.7H3.5v16h5.3c2.4,0,4.4-0.8,6-2.3c1.6-1.5,2.4-3.4,2.4-5.7c0-2.3-0.8-4.2-2.4-5.7
				C13.2,100.5,11.2,99.7,8.8,99.7z"/>
			<path fill="#E6E6E5" d="M26.7,117c-1.9,0-3.4-0.7-4.8-2c-1.3-1.3-2-2.9-2-4.7s0.7-3.4,2-4.7c1.3-1.3,2.9-2,4.8-2
				c1.9,0,3.4,0.7,4.8,2c1.3,1.3,2,2.9,2,4.7v0.5H21.1c0.1,1.4,0.7,2.7,1.8,3.7c1.1,1,2.3,1.5,3.8,1.5c1,0,2-0.3,2.9-0.8
				c0.9-0.5,1.5-1.2,2-2.1l1,0.4c-0.6,1.1-1.4,1.9-2.4,2.6C29.1,116.6,28,117,26.7,117z M30.5,106.1c-1.1-1-2.3-1.5-3.8-1.5
				c-1.5,0-2.7,0.5-3.8,1.5c-1.1,1-1.7,2.2-1.8,3.7h11.2C32.2,108.3,31.6,107.1,30.5,106.1z"/>
			<path fill="#E6E6E5" d="M39.1,116.7l-5.5-12.9h1.2l5,12l5-12h1.2l-5.5,12.9H39.1z"/>
			<path fill="#E6E6E5" d="M53.3,117c-1.9,0-3.4-0.7-4.8-2c-1.3-1.3-2-2.9-2-4.7s0.7-3.4,2-4.7c1.3-1.3,2.9-2,4.8-2s3.4,0.7,4.8,2
				c1.3,1.3,2,2.9,2,4.7v0.5H47.7c0.1,1.4,0.7,2.7,1.8,3.7c1.1,1,2.3,1.5,3.8,1.5c1,0,2-0.3,2.9-0.8s1.5-1.2,2-2.1l1,0.4
				c-0.6,1.1-1.4,1.9-2.4,2.6C55.7,116.6,54.5,117,53.3,117z M57.1,106.1c-1.1-1-2.3-1.5-3.8-1.5c-1.5,0-2.7,0.5-3.8,1.5
				c-1.1,1-1.7,2.2-1.8,3.7h11.2C58.7,108.3,58.1,107.1,57.1,106.1z"/>
			<path fill="#E6E6E5" d="M62.2,116.7v-18h1.1v18H62.2z"/>
			<path fill="#E6E6E5" d="M77.4,115c-1.3,1.3-2.9,2-4.8,2c-1.9,0-3.4-0.7-4.8-2c-1.3-1.3-2-2.9-2-4.7s0.7-3.4,2-4.7
				c1.3-1.3,2.9-2,4.8-2c1.9,0,3.4,0.7,4.8,2c1.3,1.3,2,2.9,2,4.7S78.7,113.7,77.4,115z M72.6,115.9c1.6,0,2.9-0.6,4-1.7
				c1.1-1.1,1.6-2.4,1.6-4c0-1.6-0.5-2.9-1.6-4c-1.1-1.1-2.4-1.7-4-1.7c-1.6,0-2.9,0.6-4,1.7c-1.1,1.1-1.6,2.4-1.6,4
				c0,1.5,0.5,2.9,1.6,4C69.8,115.4,71.1,115.9,72.6,115.9z"/>
			<path fill="#E6E6E5" d="M81.9,121.3v-17.5H83v1.7c1.3-1.3,2.8-1.9,4.6-1.9c1.9,0,3.4,0.7,4.8,2c1.3,1.3,2,2.9,2,4.7
				s-0.7,3.4-2,4.7c-1.3,1.3-2.9,2-4.8,2c-1.8,0-3.4-0.6-4.6-1.9v6.3H81.9z M87.6,104.6c-0.9,0-1.8,0.2-2.6,0.7s-1.5,1-2,1.8v6.5
				c0.5,0.7,1.2,1.3,2,1.7c0.8,0.4,1.7,0.6,2.6,0.6c1.5,0,2.9-0.6,4-1.7c1.1-1.1,1.6-2.4,1.6-4c0-1.6-0.5-2.9-1.6-4
				C90.5,105.2,89.2,104.6,87.6,104.6z"/>
			<path fill="#E6E6E5" d="M102.6,117c-1.9,0-3.4-0.7-4.8-2c-1.3-1.3-2-2.9-2-4.7s0.7-3.4,2-4.7c1.3-1.3,2.9-2,4.8-2
				c1.9,0,3.4,0.7,4.8,2c1.3,1.3,2,2.9,2,4.7v0.5H97c0.1,1.4,0.7,2.7,1.8,3.7c1.1,1,2.3,1.5,3.8,1.5c1,0,2-0.3,2.9-0.8
				s1.5-1.2,2-2.1l1,0.4c-0.6,1.1-1.4,1.9-2.4,2.6C105,116.6,103.9,117,102.6,117z M106.4,106.1c-1.1-1-2.3-1.5-3.8-1.5
				c-1.5,0-2.7,0.5-3.8,1.5c-1.1,1-1.7,2.2-1.8,3.7h11.2C108.1,108.3,107.5,107.1,106.4,106.1z"/>
			<path fill="#E6E6E5" d="M111.6,116.7v-12.9h1.1v2.4c0.5-0.8,1.1-1.4,1.9-1.9c0.8-0.5,1.7-0.7,2.7-0.7h0.1v1h-0.1
				c-1.3,0-2.4,0.5-3.3,1.4c-0.9,0.9-1.4,2-1.4,3.3v7.4H111.6z"/>
			<path fill="#E6E6E5" d="M125.3,116.7v-18h6.7c2.6,0,4.8,0.9,6.6,2.6c1.8,1.7,2.7,3.9,2.7,6.4c0,2.5-0.9,4.7-2.7,6.4
				c-1.8,1.7-4,2.6-6.6,2.6H125.3z M131.7,99.7h-5.3v16h5.3c2.4,0,4.4-0.8,6-2.3c1.6-1.5,2.4-3.4,2.4-5.7c0-2.3-0.8-4.2-2.4-5.7
				C136.1,100.5,134.1,99.7,131.7,99.7z"/>
			<path fill="#E6E6E5" d="M149.6,117c-1.9,0-3.4-0.7-4.8-2c-1.3-1.3-2-2.9-2-4.7s0.7-3.4,2-4.7c1.3-1.3,2.9-2,4.8-2
				c1.8,0,3.3,0.6,4.6,1.9v-1.7h1.1v12.9h-1.1v-1.6C153,116.3,151.4,117,149.6,117z M149.6,115.9c0.9,0,1.8-0.2,2.6-0.6
				c0.8-0.4,1.5-1,2-1.7V107c-0.5-0.7-1.2-1.3-2-1.8c-0.8-0.4-1.7-0.7-2.6-0.7c-1.6,0-2.9,0.6-4,1.7c-1.1,1.1-1.6,2.4-1.6,4
				c0,1.5,0.5,2.9,1.6,4C146.8,115.4,148.1,115.9,149.6,115.9z"/>
			<path fill="#E6E6E5" d="M157.4,121.2l0.5-0.9c0.5,0.2,1,0.4,1.7,0.4c1.1,0,2-0.7,2.7-2l0.8-1.6l-5.6-13.2h1.2l5,12.1l5-12.1h1.2
				l-6,14.2c-0.6,1.3-1.2,2.2-1.9,2.8c-0.7,0.5-1.5,0.8-2.5,0.8C158.7,121.6,158,121.5,157.4,121.2z"/>
			<path fill="#E6E6E5" d="M175.2,117c-1.7,0-3.3-0.4-4.8-1.1l-0.2-0.1l0.6-0.9l0.3,0.2c1.4,0.6,2.7,1,4,1c1,0,1.9-0.2,2.6-0.7
				c0.7-0.5,1.1-1.1,1.1-2c0-0.2,0-0.4-0.1-0.6c0-0.2-0.1-0.3-0.2-0.5c-0.1-0.1-0.2-0.3-0.3-0.4c-0.1-0.1-0.2-0.2-0.5-0.3
				c-0.2-0.1-0.4-0.2-0.5-0.3c-0.1-0.1-0.3-0.1-0.6-0.2c-0.3-0.1-0.5-0.2-0.7-0.2c-0.2-0.1-0.4-0.1-0.8-0.2
				c-0.4-0.1-0.7-0.2-0.8-0.2c-0.7-0.2-1.2-0.4-1.6-0.5c-0.4-0.2-0.8-0.4-1.2-0.6c-0.4-0.3-0.7-0.6-0.9-1c-0.2-0.4-0.3-0.8-0.3-1.3
				c0-1,0.5-1.8,1.4-2.5c0.9-0.6,2-0.9,3.4-0.9c1.5,0,2.8,0.2,4,0.7l0.3,0.1l-0.6,0.8l-0.2-0.1c-1.2-0.4-2.4-0.6-3.5-0.6
				c-1,0-1.8,0.2-2.5,0.6c-0.7,0.4-1.1,1-1.1,1.7c0,0.7,0.2,1.2,0.7,1.5c0.5,0.3,1.4,0.7,2.6,1.1c1.9,0.6,3.1,1,3.6,1.4
				c0.9,0.6,1.4,1.4,1.4,2.4c0,1.1-0.5,2.1-1.4,2.7C177.7,116.6,176.6,117,175.2,117z"/>
		</g>
		<g>
			<g>
				<path fill="#E6E6E5" d="M164.1,63.1l1.5,2.7c-2.8,1.4-4.7,4.1-4.7,7.2h9h9c0-3.1-1.9-5.8-4.7-7.2l1.5-2.7c0,0,0.1-0.1-0.1-0.2
					c-0.1-0.1-0.2,0.1-0.2,0.1l-1.6,2.7c-1.2-0.5-2.5-0.8-3.9-0.8c-1.4,0-2.8,0.3-3.9,0.8l-1.6-2.7c0,0-0.1-0.1-0.2-0.1
					C164.1,63,164.1,63.1,164.1,63.1L164.1,63.1z M165.7,68.3c0.5,0,0.9,0.4,0.9,0.9c0,0.5-0.4,0.8-0.9,0.8c-0.5,0-0.9-0.4-0.9-0.8
					C164.8,68.7,165.2,68.3,165.7,68.3z M174.2,68.3c0.5,0,0.9,0.4,0.9,0.9c0,0.5-0.4,0.8-0.9,0.8c-0.5,0-0.9-0.4-0.9-0.8
					C173.4,68.7,173.7,68.3,174.2,68.3z"/>
			</g>
			<g>
				<path fill="#E6E6E5" d="M160.9,74v13.6c0,0.7,0.8,1.6,1.5,1.6h2.1v4.6c0,1.2,0.9,2.1,1.9,2.1c1.1,0,1.9-1,1.9-2.1v-4.6h3.1v4.6
					c0,1.2,0.9,2.1,1.9,2.1c1.1,0,1.9-1,1.9-2.1v-4.6h2.1c0.7,0,1.5-0.9,1.5-1.6V74H160.9L160.9,74z"/>
			</g>
			<g>
				<path fill="#E6E6E5" d="M157.9,73.7L157.9,73.7c1.1,0,1.9,1,1.9,2.1V84c0,1.2-0.9,2.1-1.9,2.1l0,0c-1.1,0-1.9-1-1.9-2.1v-8.1
					C156,74.7,156.9,73.7,157.9,73.7z"/>
			</g>
			<g>
				<path fill="#E6E6E5" d="M182,73.7L182,73.7c1.1,0,1.9,1,1.9,2.1V84c0,1.2-0.9,2.1-1.9,2.1l0,0c-1.1,0-1.9-1-1.9-2.1v-8.1
					C180,74.7,180.9,73.7,182,73.7z"/>
			</g>
		</g>
	</g>
</g>
<g id="logo-original">
	<g>
		<g>
			<path fill="#68B245" d="M1.1,22c0-1.6,0.3-3,0.8-4.3s1.2-2.5,2.2-3.5s2.1-1.8,3.4-2.3c1.3-0.6,2.7-0.9,4.3-0.9
				c1.2,0,2.2,0.2,3.2,0.5c1,0.3,1.9,0.9,2.8,1.7v-1.8H23v21.3h-5.3v-1.8c-0.9,0.8-1.8,1.4-2.8,1.7c-1,0.3-2,0.5-3.2,0.5
				c-1.6,0-3-0.3-4.3-0.9C6.1,31.6,5,30.8,4,29.8s-1.7-2.2-2.2-3.5C1.3,25,1.1,23.5,1.1,22z M12.4,28.1c0.4,0,0.9,0,1.3-0.1
				c0.5-0.1,0.9-0.2,1.4-0.5c0.5-0.2,0.9-0.5,1.4-0.9c0.4-0.4,0.9-0.8,1.3-1.3v-6.6c-0.4-0.5-0.8-1-1.3-1.3
				c-0.4-0.4-0.9-0.6-1.4-0.9c-0.5-0.2-0.9-0.4-1.4-0.5c-0.5-0.1-0.9-0.1-1.3-0.1c-0.8,0-1.6,0.2-2.3,0.5c-0.7,0.3-1.3,0.7-1.9,1.3
				c-0.5,0.5-0.9,1.2-1.2,1.9c-0.3,0.7-0.4,1.5-0.4,2.4s0.1,1.7,0.4,2.4c0.3,0.7,0.7,1.4,1.2,1.9c0.5,0.5,1.1,1,1.9,1.3
				C10.8,27.9,11.6,28.1,12.4,28.1z"/>
			<path fill="#68B245" d="M27.3,11.3h5.3v1.7c0.7-0.7,1.5-1.2,2.4-1.6c0.9-0.4,2-0.6,3.1-0.6c1.3,0,2.6,0.3,3.7,0.8
				c1.1,0.5,2,1.2,2.8,2.1c0.8,0.9,1.4,1.9,1.8,3.1c0.4,1.2,0.6,2.5,0.6,3.8v11.9h-5.3V20.5c0-0.6-0.1-1.2-0.4-1.8
				c-0.2-0.6-0.6-1.1-1-1.5s-0.9-0.8-1.4-1c-0.6-0.2-1.1-0.4-1.8-0.4c-0.6,0-1.2,0.1-1.8,0.4c-0.6,0.2-1,0.6-1.5,1
				c-0.4,0.4-0.7,0.9-1,1.5c-0.2,0.6-0.4,1.2-0.4,1.8v12.1h-5.3V11.3z"/>
			<path fill="#68B245" d="M49.8,22c0-1.6,0.3-3,0.8-4.3c0.5-1.3,1.2-2.5,2.2-3.5s2.1-1.8,3.4-2.3c1.3-0.6,2.7-0.9,4.3-0.9
				c1.2,0,2.3,0.2,3.2,0.5c1,0.3,1.9,0.9,2.8,1.7V5h5.3v27.6h-5.3v-1.8c-0.9,0.8-1.8,1.4-2.8,1.7c-1,0.3-2,0.5-3.2,0.5
				c-1.6,0-3-0.3-4.3-0.9c-1.3-0.6-2.4-1.3-3.4-2.3s-1.7-2.2-2.2-3.5C50.1,25,49.8,23.5,49.8,22z M61.1,28.1c0.4,0,0.9,0,1.3-0.1
				c0.5-0.1,0.9-0.2,1.4-0.5c0.5-0.2,0.9-0.5,1.4-0.9c0.4-0.4,0.9-0.8,1.3-1.3v-6.6c-0.4-0.5-0.8-1-1.3-1.3
				c-0.4-0.4-0.9-0.6-1.4-0.9c-0.5-0.2-0.9-0.4-1.4-0.5c-0.5-0.1-0.9-0.1-1.3-0.1c-0.8,0-1.6,0.2-2.3,0.5c-0.7,0.3-1.3,0.7-1.9,1.3
				c-0.5,0.5-0.9,1.2-1.2,1.9c-0.3,0.7-0.4,1.5-0.4,2.4s0.1,1.7,0.4,2.4c0.3,0.7,0.7,1.4,1.2,1.9c0.5,0.5,1.1,1,1.9,1.3
				C59.5,27.9,60.3,28.1,61.1,28.1z"/>
			<path fill="#68B245" d="M76,11.3h5.3v2.2c0.6-0.8,1.3-1.5,2.2-1.9c0.9-0.5,2-0.7,3.3-0.7h0.6v5.4h-1.5c-0.7,0-1.4,0.1-2,0.4
				c-0.6,0.2-1,0.6-1.4,1c-0.4,0.4-0.7,0.9-0.9,1.5c-0.2,0.6-0.3,1.2-0.3,1.8v11.7H76V11.3z"/>
			<path fill="#68B245" d="M99.5,33c-1.5,0-3-0.3-4.3-0.8c-1.4-0.6-2.5-1.3-3.6-2.3c-1-1-1.8-2.2-2.4-3.5c-0.6-1.3-0.9-2.8-0.9-4.4
				c0-1.5,0.3-3,0.9-4.3c0.6-1.3,1.4-2.5,2.4-3.5c1-1,2.2-1.8,3.6-2.4c1.4-0.6,2.8-0.9,4.4-0.9s3,0.3,4.3,0.9
				c1.4,0.6,2.5,1.4,3.6,2.4c1,1,1.8,2.2,2.4,3.5c0.6,1.3,0.9,2.8,0.9,4.3c0,1.6-0.3,3-0.9,4.4c-0.6,1.3-1.4,2.5-2.4,3.5
				s-2.2,1.8-3.6,2.3C102.5,32.8,101.1,33,99.5,33z M99.5,28.1c0.8,0,1.5-0.1,2.2-0.4c0.7-0.3,1.3-0.7,1.8-1.3
				c0.5-0.5,0.9-1.2,1.2-1.9c0.3-0.7,0.4-1.6,0.4-2.5c0-0.9-0.2-1.7-0.5-2.4c-0.3-0.7-0.7-1.4-1.2-1.9c-0.5-0.5-1.1-1-1.8-1.3
				c-0.7-0.3-1.4-0.5-2.2-0.5c-0.8,0-1.5,0.2-2.2,0.5c-0.7,0.3-1.3,0.7-1.8,1.3c-0.5,0.5-0.9,1.2-1.2,1.9c-0.3,0.7-0.5,1.6-0.5,2.4
				c0,0.9,0.1,1.7,0.4,2.5s0.7,1.4,1.2,1.9c0.5,0.5,1.1,1,1.8,1.3C98,27.9,98.7,28.1,99.5,28.1z"/>
			<path fill="#68B245" d="M116.5,9c-0.4,0-0.9-0.1-1.3-0.3c-0.4-0.2-0.7-0.4-1-0.7c-0.3-0.3-0.5-0.6-0.7-1
				c-0.2-0.4-0.3-0.8-0.3-1.3c0-0.4,0.1-0.9,0.3-1.3c0.2-0.4,0.4-0.8,0.7-1c0.3-0.3,0.6-0.5,1-0.7c0.4-0.2,0.8-0.3,1.3-0.3
				s0.9,0.1,1.3,0.3c0.4,0.2,0.8,0.4,1,0.7c0.3,0.3,0.5,0.6,0.7,1c0.2,0.4,0.3,0.8,0.3,1.3c0,0.4-0.1,0.9-0.3,1.3
				c-0.2,0.4-0.4,0.7-0.7,1c-0.3,0.3-0.6,0.5-1,0.7C117.3,8.9,116.9,9,116.5,9z M113.8,11.3h5.3v21.3h-5.3V11.3z"/>
			<path fill="#68B245" d="M122.2,22c0-1.6,0.3-3,0.8-4.3s1.2-2.5,2.2-3.5c0.9-1,2.1-1.8,3.4-2.3c1.3-0.6,2.7-0.9,4.3-0.9
				c1.2,0,2.2,0.2,3.2,0.5c1,0.3,1.9,0.9,2.8,1.7V5h5.3v27.6h-5.3v-1.8c-0.9,0.8-1.8,1.4-2.8,1.7c-1,0.3-2,0.5-3.2,0.5
				c-1.6,0-3-0.3-4.3-0.9c-1.3-0.6-2.4-1.3-3.4-2.3c-0.9-1-1.7-2.2-2.2-3.5C122.5,25,122.2,23.5,122.2,22z M133.5,28.1
				c0.4,0,0.9,0,1.3-0.1c0.5-0.1,0.9-0.2,1.4-0.5c0.5-0.2,0.9-0.5,1.4-0.9c0.4-0.4,0.9-0.8,1.3-1.3v-6.6c-0.4-0.5-0.8-1-1.3-1.3
				c-0.4-0.4-0.9-0.6-1.4-0.9c-0.5-0.2-0.9-0.4-1.4-0.5c-0.5-0.1-0.9-0.1-1.3-0.1c-0.8,0-1.6,0.2-2.3,0.5c-0.7,0.3-1.3,0.7-1.9,1.3
				c-0.5,0.5-0.9,1.2-1.2,1.9c-0.3,0.7-0.4,1.5-0.4,2.4s0.1,1.7,0.4,2.4c0.3,0.7,0.7,1.4,1.2,1.9c0.5,0.5,1.1,1,1.9,1.3
				C131.9,27.9,132.7,28.1,133.5,28.1z"/>
		</g>
		<g>
			<path fill="#68B245" d="M2.4,54.8v-18h6.7c2.6,0,4.8,0.9,6.6,2.6c1.8,1.7,2.7,3.9,2.7,6.4c0,2.5-0.9,4.7-2.7,6.4
				c-1.8,1.7-4,2.6-6.6,2.6H2.4z M8.8,37.9H3.5v16h5.3c2.4,0,4.4-0.8,6-2.3c1.6-1.5,2.4-3.4,2.4-5.7s-0.8-4.2-2.4-5.7
				S11.2,37.9,8.8,37.9z"/>
			<path fill="#68B245" d="M26.7,55.1c-1.9,0-3.4-0.7-4.8-2c-1.3-1.3-2-2.9-2-4.7c0-1.9,0.7-3.4,2-4.7c1.3-1.3,2.9-2,4.8-2
				c1.9,0,3.4,0.7,4.8,2c1.3,1.3,2,2.9,2,4.7v0.5H21.1c0.1,1.4,0.7,2.7,1.8,3.7c1.1,1,2.3,1.5,3.8,1.5c1,0,2-0.3,2.9-0.8
				c0.9-0.5,1.5-1.2,2-2.1l1,0.4c-0.6,1.1-1.4,1.9-2.4,2.6C29.1,54.8,28,55.1,26.7,55.1z M30.5,44.2c-1.1-1-2.3-1.5-3.8-1.5
				c-1.5,0-2.7,0.5-3.8,1.5c-1.1,1-1.7,2.2-1.8,3.7h11.2C32.2,46.4,31.6,45.2,30.5,44.2z"/>
			<path fill="#68B245" d="M39.1,54.8L33.7,42h1.2l5,12l5-12h1.2l-5.5,12.9H39.1z"/>
			<path fill="#68B245" d="M53.3,55.1c-1.9,0-3.4-0.7-4.8-2c-1.3-1.3-2-2.9-2-4.7c0-1.9,0.7-3.4,2-4.7c1.3-1.3,2.9-2,4.8-2
				s3.4,0.7,4.8,2c1.3,1.3,2,2.9,2,4.7v0.5H47.7c0.1,1.4,0.7,2.7,1.8,3.7c1.1,1,2.3,1.5,3.8,1.5c1,0,2-0.3,2.9-0.8s1.5-1.2,2-2.1
				l1,0.4c-0.6,1.1-1.4,1.9-2.4,2.6C55.7,54.8,54.5,55.1,53.3,55.1z M57.1,44.2c-1.1-1-2.3-1.5-3.8-1.5c-1.5,0-2.7,0.5-3.8,1.5
				c-1.1,1-1.7,2.2-1.8,3.7h11.2C58.7,46.4,58.1,45.2,57.1,44.2z"/>
			<path fill="#68B245" d="M62.2,54.8v-18h1.1v18H62.2z"/>
			<path fill="#68B245" d="M77.4,53.1c-1.3,1.3-2.9,2-4.8,2c-1.9,0-3.4-0.7-4.8-2c-1.3-1.3-2-2.9-2-4.7c0-1.9,0.7-3.4,2-4.7
				c1.3-1.3,2.9-2,4.8-2c1.9,0,3.4,0.7,4.8,2c1.3,1.3,2,2.9,2,4.7C79.4,50.3,78.7,51.8,77.4,53.1z M72.6,54.1c1.6,0,2.9-0.6,4-1.7
				c1.1-1.1,1.6-2.4,1.6-4c0-1.6-0.5-2.9-1.6-4c-1.1-1.1-2.4-1.7-4-1.7c-1.6,0-2.9,0.6-4,1.7c-1.1,1.1-1.6,2.4-1.6,4
				c0,1.5,0.5,2.9,1.6,4C69.8,53.5,71.1,54.1,72.6,54.1z"/>
			<path fill="#68B245" d="M81.9,59.5V42H83v1.7c1.3-1.3,2.8-1.9,4.6-1.9c1.9,0,3.4,0.7,4.8,2c1.3,1.3,2,2.9,2,4.7
				c0,1.9-0.7,3.4-2,4.7c-1.3,1.3-2.9,2-4.8,2c-1.8,0-3.4-0.6-4.6-1.9v6.3H81.9z M87.6,42.7c-0.9,0-1.8,0.2-2.6,0.7s-1.5,1-2,1.8
				v6.5c0.5,0.7,1.2,1.3,2,1.7c0.8,0.4,1.7,0.6,2.6,0.6c1.5,0,2.9-0.6,4-1.7c1.1-1.1,1.6-2.4,1.6-4c0-1.6-0.5-2.9-1.6-4
				C90.5,43.3,89.2,42.7,87.6,42.7z"/>
			<path fill="#68B245" d="M102.6,55.1c-1.9,0-3.4-0.7-4.8-2c-1.3-1.3-2-2.9-2-4.7c0-1.9,0.7-3.4,2-4.7c1.3-1.3,2.9-2,4.8-2
				c1.9,0,3.4,0.7,4.8,2c1.3,1.3,2,2.9,2,4.7v0.5H97c0.1,1.4,0.7,2.7,1.8,3.7c1.1,1,2.3,1.5,3.8,1.5c1,0,2-0.3,2.9-0.8
				s1.5-1.2,2-2.1l1,0.4c-0.6,1.1-1.4,1.9-2.4,2.6C105,54.8,103.9,55.1,102.6,55.1z M106.4,44.2c-1.1-1-2.3-1.5-3.8-1.5
				c-1.5,0-2.7,0.5-3.8,1.5c-1.1,1-1.7,2.2-1.8,3.7h11.2C108.1,46.4,107.5,45.2,106.4,44.2z"/>
			<path fill="#68B245" d="M111.6,54.8V42h1.1v2.4c0.5-0.8,1.1-1.4,1.9-1.9c0.8-0.5,1.7-0.7,2.7-0.7h0.1v1h-0.1
				c-1.3,0-2.4,0.5-3.3,1.4c-0.9,0.9-1.4,2-1.4,3.3v7.4H111.6z"/>
			<path fill="#68B245" d="M125.3,54.8v-18h6.7c2.6,0,4.8,0.9,6.6,2.6c1.8,1.7,2.7,3.9,2.7,6.4c0,2.5-0.9,4.7-2.7,6.4
				c-1.8,1.7-4,2.6-6.6,2.6H125.3z M131.7,37.9h-5.3v16h5.3c2.4,0,4.4-0.8,6-2.3c1.6-1.5,2.4-3.4,2.4-5.7s-0.8-4.2-2.4-5.7
				C136.1,38.6,134.1,37.9,131.7,37.9z"/>
			<path fill="#68B245" d="M149.6,55.1c-1.9,0-3.4-0.7-4.8-2c-1.3-1.3-2-2.9-2-4.7c0-1.9,0.7-3.4,2-4.7c1.3-1.3,2.9-2,4.8-2
				c1.8,0,3.3,0.6,4.6,1.9V42h1.1v12.9h-1.1v-1.6C153,54.5,151.4,55.1,149.6,55.1z M149.6,54.1c0.9,0,1.8-0.2,2.6-0.6
				c0.8-0.4,1.5-1,2-1.7v-6.5c-0.5-0.7-1.2-1.3-2-1.8c-0.8-0.4-1.7-0.7-2.6-0.7c-1.6,0-2.9,0.6-4,1.7c-1.1,1.1-1.6,2.4-1.6,4
				c0,1.5,0.5,2.9,1.6,4C146.8,53.5,148.1,54.1,149.6,54.1z"/>
			<path fill="#68B245" d="M157.4,59.3l0.5-0.9c0.5,0.2,1,0.4,1.7,0.4c1.1,0,2-0.7,2.7-2l0.8-1.6L157.4,42h1.2l5,12.1l5-12.1h1.2
				l-6,14.2c-0.6,1.3-1.2,2.2-1.9,2.8c-0.7,0.5-1.5,0.8-2.5,0.8C158.7,59.8,158,59.6,157.4,59.3z"/>
			<path fill="#68B245" d="M175.2,55.1c-1.7,0-3.3-0.4-4.8-1.1l-0.2-0.1l0.6-0.9l0.3,0.2c1.4,0.6,2.7,1,4,1c1,0,1.9-0.2,2.6-0.7
				c0.7-0.5,1.1-1.1,1.1-2c0-0.2,0-0.4-0.1-0.6c0-0.2-0.1-0.3-0.2-0.5c-0.1-0.1-0.2-0.3-0.3-0.4c-0.1-0.1-0.2-0.2-0.5-0.3
				c-0.2-0.1-0.4-0.2-0.5-0.3c-0.1-0.1-0.3-0.1-0.6-0.2c-0.3-0.1-0.5-0.2-0.7-0.2c-0.2-0.1-0.4-0.1-0.8-0.2
				c-0.4-0.1-0.7-0.2-0.8-0.2c-0.7-0.2-1.2-0.4-1.6-0.5c-0.4-0.2-0.8-0.4-1.2-0.6c-0.4-0.3-0.7-0.6-0.9-1c-0.2-0.4-0.3-0.8-0.3-1.3
				c0-1,0.5-1.8,1.4-2.5c0.9-0.6,2-0.9,3.4-0.9c1.5,0,2.8,0.2,4,0.7l0.3,0.1l-0.6,0.8l-0.2-0.1c-1.2-0.4-2.4-0.6-3.5-0.6
				c-1,0-1.8,0.2-2.5,0.6c-0.7,0.4-1.1,1-1.1,1.7c0,0.7,0.2,1.2,0.7,1.5c0.5,0.3,1.4,0.7,2.6,1.1c1.9,0.6,3.1,1,3.6,1.4
				c0.9,0.6,1.4,1.4,1.4,2.4c0,1.1-0.5,2.1-1.4,2.7C177.7,54.8,176.6,55.1,175.2,55.1z"/>
		</g>
		<g>
			<g>
				<path fill="#68B245" d="M164.1,1.3l1.5,2.7c-2.8,1.4-4.7,4.1-4.7,7.2h9h9c0-3.1-1.9-5.8-4.7-7.2l1.5-2.7c0,0,0.1-0.1-0.1-0.2
					c-0.1-0.1-0.2,0.1-0.2,0.1l-1.6,2.7C172.7,3.3,171.4,3,170,3c-1.4,0-2.8,0.3-3.9,0.8l-1.6-2.7c0,0-0.1-0.1-0.2-0.1
					C164.1,1.1,164.1,1.3,164.1,1.3L164.1,1.3z M165.7,6.5c0.5,0,0.9,0.4,0.9,0.9c0,0.5-0.4,0.8-0.9,0.8c-0.5,0-0.9-0.4-0.9-0.8
					C164.8,6.9,165.2,6.5,165.7,6.5z M174.2,6.5c0.5,0,0.9,0.4,0.9,0.9c0,0.5-0.4,0.8-0.9,0.8c-0.5,0-0.9-0.4-0.9-0.8
					C173.4,6.9,173.7,6.5,174.2,6.5z"/>
			</g>
			<g>
				<path fill="#68B245" d="M160.9,12.2v13.6c0,0.7,0.8,1.6,1.5,1.6h2.1V32c0,1.2,0.9,2.1,1.9,2.1c1.1,0,1.9-1,1.9-2.1v-4.6h3.1V32
					c0,1.2,0.9,2.1,1.9,2.1c1.1,0,1.9-1,1.9-2.1v-4.6h2.1c0.7,0,1.5-0.9,1.5-1.6V12.2H160.9L160.9,12.2z"/>
			</g>
			<g>
				<path fill="#68B245" d="M157.9,11.9L157.9,11.9c1.1,0,1.9,1,1.9,2.1v8.1c0,1.2-0.9,2.1-1.9,2.1l0,0c-1.1,0-1.9-1-1.9-2.1V14
					C156,12.8,156.9,11.9,157.9,11.9z"/>
			</g>
			<g>
				<path fill="#68B245" d="M182,11.9L182,11.9c1.1,0,1.9,1,1.9,2.1v8.1c0,1.2-0.9,2.1-1.9,2.1l0,0c-1.1,0-1.9-1-1.9-2.1V14
					C180,12.8,180.9,11.9,182,11.9z"/>
			</g>
		</g>
	</g>
</g>
</svg>
