<svg xmlns="http://www.w3.org/2000/svg" viewBox="0 0 185 122.6" enable-background="new 0 0 185 122.6"><g id="logo-light"><g fill="#E6E6E5"><path d="M1.1 83.8c0-1.6.3-3 .8-4.3C2.4 78.2 3.1 77 4 76s2.1-1.8 3.4-2.3c1.3-.6 2.7-.9 4.3-.9 1.2 0 2.2.2 3.2.5s1.9.9 2.8 1.7v-1.8H23v21.3h-5.3v-1.8c-.9.8-1.8 1.4-2.8 1.7-1 .3-2 .5-3.2.5-1.6 0-3-.3-4.3-.9-1.3-.5-2.4-1.3-3.4-2.3-.9-1-1.7-2.2-2.2-3.5-.5-1.4-.7-2.8-.7-4.4zm11.3 6.1c.4 0 .9 0 1.3-.1.5-.1.9-.2 1.4-.5.5-.2.9-.5 1.4-.9.4-.4.9-.8 1.3-1.3v-6.6c-.4-.5-.8-1-1.3-1.3-.4-.4-.9-.6-1.4-.9-.5-.2-.9-.4-1.4-.5-.5-.1-.9-.1-1.3-.1-.8 0-1.6.2-2.3.5-.7.3-1.3.7-1.9 1.3-.5.5-.9 1.2-1.2 1.9-.3.7-.4 1.5-.4 2.4s.1 1.7.4 2.4c.3.7.7 1.4 1.2 1.9s1.1 1 1.9 1.3c.7.4 1.5.5 2.3.5zM27.3 73.2h5.3V75c.7-.7 1.5-1.2 2.4-1.6.9-.4 2-.6 3.1-.6 1.3 0 2.6.3 3.7.8s2 1.2 2.8 2.1c.8.9 1.4 1.9 1.8 3.1.4 1.2.6 2.5.6 3.8v11.9h-5.3V82.4c0-.6-.1-1.2-.4-1.8-.2-.6-.6-1.1-1-1.5s-.9-.8-1.4-1c-.6-.2-1.1-.4-1.8-.4-.6 0-1.2.1-1.8.4-.6.2-1 .6-1.5 1-.4.4-.7.9-1 1.5-.2.6-.4 1.2-.4 1.8v12.1h-5.3V73.2zM49.8 83.8c0-1.6.3-3 .8-4.3.5-1.3 1.2-2.5 2.2-3.5s2.1-1.8 3.4-2.3c1.3-.6 2.7-.9 4.3-.9 1.2 0 2.3.2 3.2.5 1 .3 1.9.9 2.8 1.7v-8.2h5.3v27.6h-5.3v-1.8c-.9.8-1.8 1.4-2.8 1.7-1 .3-2 .5-3.2.5-1.6 0-3-.3-4.3-.9-1.3-.6-2.4-1.3-3.4-2.3-.9-1-1.7-2.2-2.2-3.5-.5-1.3-.8-2.7-.8-4.3zm11.3 6.1c.4 0 .9 0 1.3-.1.5-.1.9-.2 1.4-.5.5-.2.9-.5 1.4-.9.4-.4.9-.8 1.3-1.3v-6.6c-.4-.5-.8-1-1.3-1.3-.4-.4-.9-.6-1.4-.9-.5-.2-.9-.4-1.4-.5-.5-.1-.9-.1-1.3-.1-.8 0-1.6.2-2.3.5-.7.3-1.3.7-1.9 1.3-.5.5-.9 1.2-1.2 1.9-.3.7-.4 1.5-.4 2.4s.1 1.7.4 2.4c.3.7.7 1.4 1.2 1.9s1.1 1 1.9 1.3c.7.4 1.5.5 2.3.5zM76 73.2h5.3v2.2c.6-.8 1.3-1.5 2.2-1.9.9-.5 2-.7 3.3-.7h.6v5.4h-1.5c-.7 0-1.4.1-2 .4-.6.2-1 .6-1.4 1-.4.4-.7.9-.9 1.5-.2.6-.3 1.2-.3 1.8v11.7H76V73.2zM99.5 94.9c-1.5 0-3-.3-4.3-.8-1.4-.6-2.5-1.3-3.6-2.3-1-1-1.8-2.2-2.4-3.5-.6-1.3-.9-2.8-.9-4.4 0-1.5.3-3 .9-4.3.6-1.3 1.4-2.5 2.4-3.5s2.2-1.8 3.6-2.4c1.4-.6 2.8-.9 4.4-.9s3 .3 4.3.9c1.4.6 2.5 1.4 3.6 2.4 1 1 1.8 2.2 2.4 3.5.6 1.3.9 2.8.9 4.3 0 1.6-.3 3-.9 4.4-.6 1.3-1.4 2.5-2.4 3.5s-2.2 1.8-3.6 2.3c-1.4.5-2.8.8-4.4.8zm0-5c.8 0 1.5-.1 2.2-.4.7-.3 1.3-.7 1.8-1.3.5-.5.9-1.2 1.2-1.9.3-.7.4-1.6.4-2.5 0-.9-.2-1.7-.5-2.4s-.7-1.4-1.2-1.9-1.1-1-1.8-1.3c-.7-.3-1.4-.5-2.2-.5-.8 0-1.5.2-2.2.5-.7.3-1.3.7-1.8 1.3-.5.5-.9 1.2-1.2 1.9-.3.7-.5 1.6-.5 2.4 0 .9.1 1.7.4 2.5.3.7.7 1.4 1.2 1.9s1.1 1 1.8 1.3c.9.3 1.6.4 2.4.4zM116.5 70.8c-.4 0-.9-.1-1.3-.3-.4-.2-.7-.4-1-.7-.3-.3-.5-.6-.7-1-.2-.4-.3-.8-.3-1.3 0-.4.1-.9.3-1.3.2-.4.4-.8.7-1 .3-.3.6-.5 1-.7.4-.2.8-.3 1.3-.3s.9.1 1.3.3c.4.2.8.4 1 .7.3.3.5.6.7 1 .2.4.3.8.3 1.3 0 .4-.1.9-.3 1.3-.2.4-.4.7-.7 1-.3.3-.6.5-1 .7-.5.2-.9.3-1.3.3zm-2.7 2.4h5.3v21.3h-5.3V73.2zM122.2 83.8c0-1.6.3-3 .8-4.3.5-1.3 1.2-2.5 2.2-3.5.9-1 2.1-1.8 3.4-2.3 1.3-.6 2.7-.9 4.3-.9 1.2 0 2.2.2 3.2.5s1.9.9 2.8 1.7v-8.2h5.3v27.6h-5.3v-1.8c-.9.8-1.8 1.4-2.8 1.7-1 .3-2 .5-3.2.5-1.6 0-3-.3-4.3-.9-1.3-.6-2.4-1.3-3.4-2.3-.9-1-1.7-2.2-2.2-3.5-.5-1.3-.8-2.7-.8-4.3zm11.3 6.1c.4 0 .9 0 1.3-.1.5-.1.9-.2 1.4-.5.5-.2.9-.5 1.4-.9.4-.4.9-.8 1.3-1.3v-6.6c-.4-.5-.8-1-1.3-1.3-.4-.4-.9-.6-1.4-.9-.5-.2-.9-.4-1.4-.5-.5-.1-.9-.1-1.3-.1-.8 0-1.6.2-2.3.5-.7.3-1.3.7-1.9 1.3-.5.5-.9 1.2-1.2 1.9-.3.7-.4 1.5-.4 2.4s.1 1.7.4 2.4c.3.7.7 1.4 1.2 1.9s1.1 1 1.9 1.3c.7.4 1.5.5 2.3.5z"/></g><g fill="#E6E6E5"><path d="M2.4 116.7v-18h6.7c2.6 0 4.8.9 6.6 2.6 1.8 1.7 2.7 3.9 2.7 6.4 0 2.5-.9 4.7-2.7 6.4-1.8 1.7-4 2.6-6.6 2.6H2.4zm6.4-17H3.5v16h5.3c2.4 0 4.4-.8 6-2.3 1.6-1.5 2.4-3.4 2.4-5.7 0-2.3-.8-4.2-2.4-5.7-1.6-1.5-3.6-2.3-6-2.3zM26.7 117c-1.9 0-3.4-.7-4.8-2-1.3-1.3-2-2.9-2-4.7s.7-3.4 2-4.7c1.3-1.3 2.9-2 4.8-2s3.4.7 4.8 2c1.3 1.3 2 2.9 2 4.7v.5H21.1c.1 1.4.7 2.7 1.8 3.7s2.3 1.5 3.8 1.5c1 0 2-.3 2.9-.8.9-.5 1.5-1.2 2-2.1l1 .4c-.6 1.1-1.4 1.9-2.4 2.6-1.1.5-2.2.9-3.5.9zm3.8-10.9c-1.1-1-2.3-1.5-3.8-1.5s-2.7.5-3.8 1.5c-1.1 1-1.7 2.2-1.8 3.7h11.2c-.1-1.5-.7-2.7-1.8-3.7zM39.1 116.7l-5.5-12.9h1.2l5 12 5-12H46l-5.5 12.9h-1.4zM53.3 117c-1.9 0-3.4-.7-4.8-2-1.3-1.3-2-2.9-2-4.7s.7-3.4 2-4.7c1.3-1.3 2.9-2 4.8-2s3.4.7 4.8 2c1.3 1.3 2 2.9 2 4.7v.5H47.7c.1 1.4.7 2.7 1.8 3.7s2.3 1.5 3.8 1.5c1 0 2-.3 2.9-.8s1.5-1.2 2-2.1l1 .4c-.6 1.1-1.4 1.9-2.4 2.6-1.1.5-2.3.9-3.5.9zm3.8-10.9c-1.1-1-2.3-1.5-3.8-1.5s-2.7.5-3.8 1.5c-1.1 1-1.7 2.2-1.8 3.7h11.2c-.2-1.5-.8-2.7-1.8-3.7zM62.2 116.7v-18h1.1v18h-1.1zM77.4 115c-1.3 1.3-2.9 2-4.8 2s-3.4-.7-4.8-2c-1.3-1.3-2-2.9-2-4.7s.7-3.4 2-4.7c1.3-1.3 2.9-2 4.8-2s3.4.7 4.8 2c1.3 1.3 2 2.9 2 4.7s-.7 3.4-2 4.7zm-4.8.9c1.6 0 2.9-.6 4-1.7s1.6-2.4 1.6-4-.5-2.9-1.6-4-2.4-1.7-4-1.7-2.9.6-4 1.7-1.6 2.4-1.6 4c0 1.5.5 2.9 1.6 4 1.2 1.2 2.5 1.7 4 1.7zM81.9 121.3v-17.5H83v1.7c1.3-1.3 2.8-1.9 4.6-1.9 1.9 0 3.4.7 4.8 2 1.3 1.3 2 2.9 2 4.7s-.7 3.4-2 4.7c-1.3 1.3-2.9 2-4.8 2-1.8 0-3.4-.6-4.6-1.9v6.3h-1.1zm5.7-16.7c-.9 0-1.8.2-2.6.7s-1.5 1-2 1.8v6.5c.5.7 1.2 1.3 2 1.7.8.4 1.7.6 2.6.6 1.5 0 2.9-.6 4-1.7s1.6-2.4 1.6-4-.5-2.9-1.6-4c-1.1-1-2.4-1.6-4-1.6zM102.6 117c-1.9 0-3.4-.7-4.8-2-1.3-1.3-2-2.9-2-4.7s.7-3.4 2-4.7c1.3-1.3 2.9-2 4.8-2s3.4.7 4.8 2c1.3 1.3 2 2.9 2 4.7v.5H97c.1 1.4.7 2.7 1.8 3.7s2.3 1.5 3.8 1.5c1 0 2-.3 2.9-.8s1.5-1.2 2-2.1l1 .4c-.6 1.1-1.4 1.9-2.4 2.6-1.1.5-2.2.9-3.5.9zm3.8-10.9c-1.1-1-2.3-1.5-3.8-1.5s-2.7.5-3.8 1.5c-1.1 1-1.7 2.2-1.8 3.7h11.2c-.1-1.5-.7-2.7-1.8-3.7zM111.6 116.7v-12.9h1.1v2.4c.5-.8 1.1-1.4 1.9-1.9.8-.5 1.7-.7 2.7-.7h.1v1h-.1c-1.3 0-2.4.5-3.3 1.4-.9.9-1.4 2-1.4 3.3v7.4h-1zM125.3 116.7v-18h6.7c2.6 0 4.8.9 6.6 2.6 1.8 1.7 2.7 3.9 2.7 6.4 0 2.5-.9 4.7-2.7 6.4-1.8 1.7-4 2.6-6.6 2.6h-6.7zm6.4-17h-5.3v16h5.3c2.4 0 4.4-.8 6-2.3 1.6-1.5 2.4-3.4 2.4-5.7 0-2.3-.8-4.2-2.4-5.7-1.6-1.5-3.6-2.3-6-2.3zM149.6 117c-1.9 0-3.4-.7-4.8-2-1.3-1.3-2-2.9-2-4.7s.7-3.4 2-4.7c1.3-1.3 2.9-2 4.8-2 1.8 0 3.3.6 4.6 1.9v-1.7h1.1v12.9h-1.1v-1.6c-1.2 1.2-2.8 1.9-4.6 1.9zm0-1.1c.9 0 1.8-.2 2.6-.6.8-.4 1.5-1 2-1.7V107c-.5-.7-1.2-1.3-2-1.8-.8-.4-1.7-.7-2.6-.7-1.6 0-2.9.6-4 1.7s-1.6 2.4-1.6 4c0 1.5.5 2.9 1.6 4 1.2 1.2 2.5 1.7 4 1.7zM157.4 121.2l.5-.9c.5.2 1 .4 1.7.4 1.1 0 2-.7 2.7-2l.8-1.6-5.6-13.2h1.2l5 12.1 5-12.1h1.2l-6 14.2c-.6 1.3-1.2 2.2-1.9 2.8-.7.5-1.5.8-2.5.8-.8-.1-1.5-.2-2.1-.5zM175.2 117c-1.7 0-3.3-.4-4.8-1.1l-.2-.1.6-.9.3.2c1.4.6 2.7 1 4 1 1 0 1.9-.2 2.6-.7.7-.5 1.1-1.1 1.1-2 0-.2 0-.4-.1-.6 0-.2-.1-.3-.2-.5-.1-.1-.2-.3-.3-.4-.1-.1-.2-.2-.5-.3-.2-.1-.4-.2-.5-.3-.1-.1-.3-.1-.6-.2s-.5-.2-.7-.2c-.2-.1-.4-.1-.8-.2s-.7-.2-.8-.2c-.7-.2-1.2-.4-1.6-.5l-1.2-.6c-.4-.3-.7-.6-.9-1-.2-.4-.3-.8-.3-1.3 0-1 .5-1.8 1.4-2.5.9-.6 2-.9 3.4-.9 1.5 0 2.8.2 4 .7l.3.1-.6.8-.2-.1c-1.2-.4-2.4-.6-3.5-.6-1 0-1.8.2-2.5.6-.7.4-1.1 1-1.1 1.7s.2 1.2.7 1.5c.5.3 1.4.7 2.6 1.1 1.9.6 3.1 1 3.6 1.4.9.6 1.4 1.4 1.4 2.4 0 1.1-.5 2.1-1.4 2.7-.7.6-1.8 1-3.2 1z"/></g><path fill="#E6E6E5" d="M164.1 63.1l1.5 2.7c-2.8 1.4-4.7 4.1-4.7 7.2h18c0-3.1-1.9-5.8-4.7-7.2l1.5-2.7s.1-.1-.1-.2c-.1-.1-.2.1-.2.1l-1.6 2.7c-1.2-.5-2.5-.8-3.9-.8s-2.8.3-3.9.8l-1.6-2.7s-.1-.1-.2-.1c-.1.1-.1.2-.1.2zm1.6 5.2c.5 0 .9.4.9.9s-.4.8-.9.8-.9-.4-.9-.8c0-.5.4-.9.9-.9zm8.5 0c.5 0 .9.4.9.9s-.4.8-.9.8-.9-.4-.9-.8c.1-.5.4-.9.9-.9zM160.9 74v13.6c0 .7.8 1.6 1.5 1.6h2.1v4.6c0 1.2.9 2.1 1.9 2.1 1.1 0 1.9-1 1.9-2.1v-4.6h3.1v4.6c0 1.2.9 2.1 1.9 2.1 1.1 0 1.9-1 1.9-2.1v-4.6h2.1c.7 0 1.5-.9 1.5-1.6V74h-17.9zM157.9 73.7c1.1 0 1.9 1 1.9 2.1V84c0 1.2-.9 2.1-1.9 2.1-1.1 0-1.9-1-1.9-2.1v-8.1c0-1.2.9-2.2 1.9-2.2zM182 73.7c1.1 0 1.9 1 1.9 2.1V84c0 1.2-.9 2.1-1.9 2.1-1.1 0-1.9-1-1.9-2.1v-8.1c-.1-1.2.8-2.2 1.9-2.2z"/></g><g id="logo-original"><g fill="#68B245"><path d="M1.1 22c0-1.6.3-3 .8-4.3s1.2-2.5 2.2-3.5 2.1-1.8 3.4-2.3c1.3-.6 2.7-.9 4.3-.9 1.2 0 2.2.2 3.2.5s1.9.9 2.8 1.7v-1.8H23v21.3h-5.3v-1.8c-.9.8-1.8 1.4-2.8 1.7-1 .3-2 .5-3.2.5-1.6 0-3-.3-4.3-.9-1.3-.6-2.4-1.4-3.4-2.4s-1.7-2.2-2.2-3.5c-.5-1.3-.7-2.8-.7-4.3zm11.3 6.1c.4 0 .9 0 1.3-.1.5-.1.9-.2 1.4-.5.5-.2.9-.5 1.4-.9.4-.4.9-.8 1.3-1.3v-6.6c-.4-.5-.8-1-1.3-1.3-.4-.4-.9-.6-1.4-.9-.5-.2-.9-.4-1.4-.5-.5-.1-.9-.1-1.3-.1-.8 0-1.6.2-2.3.5-.7.3-1.3.7-1.9 1.3-.5.5-.9 1.2-1.2 1.9-.3.7-.4 1.5-.4 2.4s.1 1.7.4 2.4c.3.7.7 1.4 1.2 1.9s1.1 1 1.9 1.3c.7.3 1.5.5 2.3.5zM27.3 11.3h5.3V13c.7-.7 1.5-1.2 2.4-1.6.9-.4 2-.6 3.1-.6 1.3 0 2.6.3 3.7.8s2 1.2 2.8 2.1c.8.9 1.4 1.9 1.8 3.1.4 1.2.6 2.5.6 3.8v11.9h-5.3v-12c0-.6-.1-1.2-.4-1.8-.2-.6-.6-1.1-1-1.5s-.9-.8-1.4-1c-.6-.2-1.1-.4-1.8-.4-.6 0-1.2.1-1.8.4-.6.2-1 .6-1.5 1-.4.4-.7.9-1 1.5-.2.6-.4 1.2-.4 1.8v12.1h-5.3V11.3zM49.8 22c0-1.6.3-3 .8-4.3.5-1.3 1.2-2.5 2.2-3.5s2.1-1.8 3.4-2.3c1.3-.6 2.7-.9 4.3-.9 1.2 0 2.3.2 3.2.5 1 .3 1.9.9 2.8 1.7V5h5.3v27.6h-5.3v-1.8c-.9.8-1.8 1.4-2.8 1.7-1 .3-2 .5-3.2.5-1.6 0-3-.3-4.3-.9-1.3-.6-2.4-1.3-3.4-2.3s-1.7-2.2-2.2-3.5c-.5-1.3-.8-2.8-.8-4.3zm11.3 6.1c.4 0 .9 0 1.3-.1.5-.1.9-.2 1.4-.5.5-.2.9-.5 1.4-.9.4-.4.9-.8 1.3-1.3v-6.6c-.4-.5-.8-1-1.3-1.3-.4-.4-.9-.6-1.4-.9-.5-.2-.9-.4-1.4-.5-.5-.1-.9-.1-1.3-.1-.8 0-1.6.2-2.3.5-.7.3-1.3.7-1.9 1.3-.5.5-.9 1.2-1.2 1.9-.3.7-.4 1.5-.4 2.4s.1 1.7.4 2.4c.3.7.7 1.4 1.2 1.9s1.1 1 1.9 1.3c.7.3 1.5.5 2.3.5zM76 11.3h5.3v2.2c.6-.8 1.3-1.5 2.2-1.9.9-.5 2-.7 3.3-.7h.6v5.4h-1.5c-.7 0-1.4.1-2 .4-.6.2-1 .6-1.4 1-.4.4-.7.9-.9 1.5-.2.6-.3 1.2-.3 1.8v11.7H76V11.3zM99.5 33c-1.5 0-3-.3-4.3-.8-1.4-.6-2.5-1.3-3.6-2.3-1-1-1.8-2.2-2.4-3.5-.6-1.3-.9-2.8-.9-4.4 0-1.5.3-3 .9-4.3.6-1.3 1.4-2.5 2.4-3.5s2.2-1.8 3.6-2.4c1.4-.6 2.8-.9 4.4-.9s3 .3 4.3.9c1.4.6 2.5 1.4 3.6 2.4 1 1 1.8 2.2 2.4 3.5.6 1.3.9 2.8.9 4.3 0 1.6-.3 3-.9 4.4-.6 1.3-1.4 2.5-2.4 3.5s-2.2 1.8-3.6 2.3c-1.4.6-2.8.8-4.4.8zm0-4.9c.8 0 1.5-.1 2.2-.4.7-.3 1.3-.7 1.8-1.3.5-.5.9-1.2 1.2-1.9.3-.7.4-1.6.4-2.5 0-.9-.2-1.7-.5-2.4s-.7-1.4-1.2-1.9-1.1-1-1.8-1.3c-.7-.3-1.4-.5-2.2-.5-.8 0-1.5.2-2.2.5-.7.3-1.3.7-1.8 1.3-.5.5-.9 1.2-1.2 1.9-.3.7-.5 1.6-.5 2.4 0 .9.1 1.7.4 2.5s.7 1.4 1.2 1.9 1.1 1 1.8 1.3c.9.2 1.6.4 2.4.4zM116.5 9c-.4 0-.9-.1-1.3-.3-.4-.2-.7-.4-1-.7-.3-.3-.5-.6-.7-1-.2-.4-.3-.8-.3-1.3 0-.4.1-.9.3-1.3.2-.4.4-.8.7-1 .3-.3.6-.5 1-.7.4-.2.8-.3 1.3-.3s.9.1 1.3.3c.4.2.8.4 1 .7.3.3.5.6.7 1 .2.4.3.8.3 1.3 0 .4-.1.9-.3 1.3-.2.4-.4.7-.7 1-.3.3-.6.5-1 .7-.5.2-.9.3-1.3.3zm-2.7 2.3h5.3v21.3h-5.3V11.3zM122.2 22c0-1.6.3-3 .8-4.3s1.2-2.5 2.2-3.5c.9-1 2.1-1.8 3.4-2.3 1.3-.6 2.7-.9 4.3-.9 1.2 0 2.2.2 3.2.5s1.9.9 2.8 1.7V5h5.3v27.6h-5.3v-1.8c-.9.8-1.8 1.4-2.8 1.7-1 .3-2 .5-3.2.5-1.6 0-3-.3-4.3-.9-1.3-.6-2.4-1.3-3.4-2.3-.9-1-1.7-2.2-2.2-3.5-.5-1.3-.8-2.8-.8-4.3zm11.3 6.1c.4 0 .9 0 1.3-.1.5-.1.9-.2 1.4-.5.5-.2.9-.5 1.4-.9.4-.4.9-.8 1.3-1.3v-6.6c-.4-.5-.8-1-1.3-1.3-.4-.4-.9-.6-1.4-.9-.5-.2-.9-.4-1.4-.5-.5-.1-.9-.1-1.3-.1-.8 0-1.6.2-2.3.5-.7.3-1.3.7-1.9 1.3-.5.5-.9 1.2-1.2 1.9-.3.7-.4 1.5-.4 2.4s.1 1.7.4 2.4c.3.7.7 1.4 1.2 1.9s1.1 1 1.9 1.3c.7.3 1.5.5 2.3.5z"/></g><g fill="#68B245"><path d="M2.4 54.8v-18h6.7c2.6 0 4.8.9 6.6 2.6 1.8 1.7 2.7 3.9 2.7 6.4 0 2.5-.9 4.7-2.7 6.4-1.8 1.7-4 2.6-6.6 2.6H2.4zm6.4-16.9H3.5v16h5.3c2.4 0 4.4-.8 6-2.3 1.6-1.5 2.4-3.4 2.4-5.7s-.8-4.2-2.4-5.7-3.6-2.3-6-2.3zM26.7 55.1c-1.9 0-3.4-.7-4.8-2-1.3-1.3-2-2.9-2-4.7 0-1.9.7-3.4 2-4.7 1.3-1.3 2.9-2 4.8-2s3.4.7 4.8 2c1.3 1.3 2 2.9 2 4.7v.5H21.1c.1 1.4.7 2.7 1.8 3.7s2.3 1.5 3.8 1.5c1 0 2-.3 2.9-.8.9-.5 1.5-1.2 2-2.1l1 .4c-.6 1.1-1.4 1.9-2.4 2.6-1.1.6-2.2.9-3.5.9zm3.8-10.9c-1.1-1-2.3-1.5-3.8-1.5s-2.7.5-3.8 1.5c-1.1 1-1.7 2.2-1.8 3.7h11.2c-.1-1.5-.7-2.7-1.8-3.7zM39.1 54.8L33.7 42h1.2l5 12 5-12h1.2l-5.5 12.9h-1.5zM53.3 55.1c-1.9 0-3.4-.7-4.8-2-1.3-1.3-2-2.9-2-4.7 0-1.9.7-3.4 2-4.7 1.3-1.3 2.9-2 4.8-2s3.4.7 4.8 2c1.3 1.3 2 2.9 2 4.7v.5H47.7c.1 1.4.7 2.7 1.8 3.7s2.3 1.5 3.8 1.5c1 0 2-.3 2.9-.8s1.5-1.2 2-2.1l1 .4c-.6 1.1-1.4 1.9-2.4 2.6-1.1.6-2.3.9-3.5.9zm3.8-10.9c-1.1-1-2.3-1.5-3.8-1.5s-2.7.5-3.8 1.5c-1.1 1-1.7 2.2-1.8 3.7h11.2c-.2-1.5-.8-2.7-1.8-3.7zM62.2 54.8v-18h1.1v18h-1.1zM77.4 53.1c-1.3 1.3-2.9 2-4.8 2s-3.4-.7-4.8-2c-1.3-1.3-2-2.9-2-4.7 0-1.9.7-3.4 2-4.7 1.3-1.3 2.9-2 4.8-2s3.4.7 4.8 2c1.3 1.3 2 2.9 2 4.7 0 1.9-.7 3.4-2 4.7zm-4.8 1c1.6 0 2.9-.6 4-1.7s1.6-2.4 1.6-4-.5-2.9-1.6-4-2.4-1.7-4-1.7-2.9.6-4 1.7-1.6 2.4-1.6 4c0 1.5.5 2.9 1.6 4 1.2 1.1 2.5 1.7 4 1.7zM81.9 59.5V42H83v1.7c1.3-1.3 2.8-1.9 4.6-1.9 1.9 0 3.4.7 4.8 2 1.3 1.3 2 2.9 2 4.7 0 1.9-.7 3.4-2 4.7-1.3 1.3-2.9 2-4.8 2-1.8 0-3.4-.6-4.6-1.9v6.3h-1.1zm5.7-16.8c-.9 0-1.8.2-2.6.7s-1.5 1-2 1.8v6.5c.5.7 1.2 1.3 2 1.7.8.4 1.7.6 2.6.6 1.5 0 2.9-.6 4-1.7s1.6-2.4 1.6-4-.5-2.9-1.6-4c-1.1-1-2.4-1.6-4-1.6zM102.6 55.1c-1.9 0-3.4-.7-4.8-2-1.3-1.3-2-2.9-2-4.7 0-1.9.7-3.4 2-4.7 1.3-1.3 2.9-2 4.8-2s3.4.7 4.8 2c1.3 1.3 2 2.9 2 4.7v.5H97c.1 1.4.7 2.7 1.8 3.7s2.3 1.5 3.8 1.5c1 0 2-.3 2.9-.8s1.5-1.2 2-2.1l1 .4c-.6 1.1-1.4 1.9-2.4 2.6-1.1.6-2.2.9-3.5.9zm3.8-10.9c-1.1-1-2.3-1.5-3.8-1.5s-2.7.5-3.8 1.5c-1.1 1-1.7 2.2-1.8 3.7h11.2c-.1-1.5-.7-2.7-1.8-3.7zM111.6 54.8V42h1.1v2.4c.5-.8 1.1-1.4 1.9-1.9.8-.5 1.7-.7 2.7-.7h.1v1h-.1c-1.3 0-2.4.5-3.3 1.4-.9.9-1.4 2-1.4 3.3v7.4h-1zM125.3 54.8v-18h6.7c2.6 0 4.8.9 6.6 2.6 1.8 1.7 2.7 3.9 2.7 6.4 0 2.5-.9 4.7-2.7 6.4-1.8 1.7-4 2.6-6.6 2.6h-6.7zm6.4-16.9h-5.3v16h5.3c2.4 0 4.4-.8 6-2.3 1.6-1.5 2.4-3.4 2.4-5.7s-.8-4.2-2.4-5.7c-1.6-1.6-3.6-2.3-6-2.3zM149.6 55.1c-1.9 0-3.4-.7-4.8-2-1.3-1.3-2-2.9-2-4.7 0-1.9.7-3.4 2-4.7 1.3-1.3 2.9-2 4.8-2 1.8 0 3.3.6 4.6 1.9V42h1.1v12.9h-1.1v-1.6c-1.2 1.2-2.8 1.8-4.6 1.8zm0-1c.9 0 1.8-.2 2.6-.6.8-.4 1.5-1 2-1.7v-6.5c-.5-.7-1.2-1.3-2-1.8-.8-.4-1.7-.7-2.6-.7-1.6 0-2.9.6-4 1.7s-1.6 2.4-1.6 4c0 1.5.5 2.9 1.6 4 1.2 1 2.5 1.6 4 1.6zM157.4 59.3l.5-.9c.5.2 1 .4 1.7.4 1.1 0 2-.7 2.7-2l.8-1.6-5.7-13.2h1.2l5 12.1 5-12.1h1.2l-6 14.2c-.6 1.3-1.2 2.2-1.9 2.8-.7.5-1.5.8-2.5.8-.7 0-1.4-.2-2-.5zM175.2 55.1c-1.7 0-3.3-.4-4.8-1.1l-.2-.1.6-.9.3.2c1.4.6 2.7 1 4 1 1 0 1.9-.2 2.6-.7.7-.5 1.1-1.1 1.1-2 0-.2 0-.4-.1-.6 0-.2-.1-.3-.2-.5-.1-.1-.2-.3-.3-.4-.1-.1-.2-.2-.5-.3-.2-.1-.4-.2-.5-.3-.1-.1-.3-.1-.6-.2s-.5-.2-.7-.2c-.2-.1-.4-.1-.8-.2s-.7-.2-.8-.2c-.7-.2-1.2-.4-1.6-.5l-1.2-.6c-.4-.3-.7-.6-.9-1-.2-.4-.3-.8-.3-1.3 0-1 .5-1.8 1.4-2.5.9-.6 2-.9 3.4-.9 1.5 0 2.8.2 4 .7l.3.1-.6.8-.2-.1c-1.2-.4-2.4-.6-3.5-.6-1 0-1.8.2-2.5.6-.7.4-1.1 1-1.1 1.7s.2 1.2.7 1.5c.5.3 1.4.7 2.6 1.1 1.9.6 3.1 1 3.6 1.4.9.6 1.4 1.4 1.4 2.4 0 1.1-.5 2.1-1.4 2.7-.7.7-1.8 1-3.2 1z"/></g><path fill="#68B245" d="M164.1 1.3l1.5 2.7c-2.8 1.4-4.7 4.1-4.7 7.2h18c0-3.1-1.9-5.8-4.7-7.2l1.5-2.7s.1-.1-.1-.2c-.1-.1-.2.1-.2.1l-1.6 2.7c-1.1-.6-2.4-.9-3.8-.9s-2.8.3-3.9.8l-1.6-2.7s-.1-.1-.2-.1c-.2.1-.2.3-.2.3zm1.6 5.2c.5 0 .9.4.9.9s-.4.8-.9.8-.9-.4-.9-.8c0-.5.4-.9.9-.9zm8.5 0c.5 0 .9.4.9.9s-.4.8-.9.8-.9-.4-.9-.8c.1-.5.4-.9.9-.9zM160.9 12.2v13.6c0 .7.8 1.6 1.5 1.6h2.1V32c0 1.2.9 2.1 1.9 2.1 1.1 0 1.9-1 1.9-2.1v-4.6h3.1V32c0 1.2.9 2.1 1.9 2.1 1.1 0 1.9-1 1.9-2.1v-4.6h2.1c.7 0 1.5-.9 1.5-1.6V12.2h-17.9zM157.9 11.9c1.1 0 1.9 1 1.9 2.1v8.1c0 1.2-.9 2.1-1.9 2.1-1.1 0-1.9-1-1.9-2.1V14c0-1.2.9-2.1 1.9-2.1zM182 11.9c1.1 0 1.9 1 1.9 2.1v8.1c0 1.2-.9 2.1-1.9 2.1-1.1 0-1.9-1-1.9-2.1V14c-.1-1.2.8-2.1 1.9-2.1z"/></g></svg>