<svg display="none" width="0" height="0" version="1.1" xmlns="http://www.w3.org/2000/svg" xmlns:xlink="http://www.w3.org/1999/xlink">
<defs>
<symbol id="icon-twitter" viewBox="0 0 951 1024">
	<title>twitter</title>
	<path class="path1" d="M925.714 233.143q-38.286 56-92.571 95.429 0.571 8 0.571 24 0 74.286-21.714 148.286t-66 142-105.429 120.286-147.429 83.429-184.571 31.143q-154.857 0-283.429-82.857 20 2.286 44.571 2.286 128.571 0 229.143-78.857-60-1.143-107.429-36.857t-65.143-91.143q18.857 2.857 34.857 2.857 24.571 0 48.571-6.286-64-13.143-106-63.714t-42-117.429v-2.286q38.857 21.714 83.429 23.429-37.714-25.143-60-65.714t-22.286-88q0-50.286 25.143-93.143 69.143 85.143 168.286 136.286t212.286 56.857q-4.571-21.714-4.571-42.286 0-76.571 54-130.571t130.571-54q80 0 134.857 58.286 62.286-12 117.143-44.571-21.143 65.714-81.143 101.714 53.143-5.714 106.286-28.571z"></path>
</symbol>
<symbol id="icon-facebook" viewBox="0 0 585 1024">
	<title>facebook</title>
	<path class="path1" d="M548 6.857v150.857h-89.714q-49.143 0-66.286 20.571t-17.143 61.714v108h167.429l-22.286 169.143h-145.143v433.714h-174.857v-433.714h-145.714v-169.143h145.714v-124.571q0-106.286 59.429-164.857t158.286-58.571q84 0 130.286 6.857z"></path>
</symbol>
<symbol id="icon-github" viewBox="0 0 1024 1024">
	<title>github</title>
	<path class="path1" d="M877.714 512q0 143.429-83.714 258t-216.286 158.571q-15.429 2.857-22.571-4t-7.143-17.143v-120.571q0-55.429-29.714-81.143 32.571-3.429 58.571-10.286t53.714-22.286 46.286-38 30.286-60 11.714-86q0-69.143-45.143-117.714 21.143-52-4.571-116.571-16-5.143-46.286 6.286t-52.571 25.143l-21.714 13.714q-53.143-14.857-109.714-14.857t-109.714 14.857q-9.143-6.286-24.286-15.429t-47.714-22-49.143-7.714q-25.143 64.571-4 116.571-45.143 48.571-45.143 117.714 0 48.571 11.714 85.714t30 60 46 38.286 53.714 22.286 58.571 10.286q-22.857 20.571-28 58.857-12 5.714-25.714 8.571t-32.571 2.857-37.429-12.286-31.714-35.714q-10.857-18.286-27.714-29.714t-28.286-13.714l-11.429-1.714q-12 0-16.571 2.571t-2.857 6.571 5.143 8 7.429 6.857l4 2.857q12.571 5.714 24.857 21.714t18 29.143l5.714 13.143q7.429 21.714 25.143 35.143t38.286 17.143 39.714 4 31.714-2l13.143-2.286q0 21.714 0.286 50.857t0.286 30.857q0 10.286-7.429 17.143t-22.857 4q-132.571-44-216.286-158.571t-83.714-258q0-119.429 58.857-220.286t159.714-159.714 220.286-58.857 220.286 58.857 159.714 159.714 58.857 220.286z"></path>
</symbol>
<symbol id="icon-rss" viewBox="0 0 805 1024">
	<title>rss</title>
	<path class="path1" d="M219.429 768q0 45.714-32 77.714t-77.714 32-77.714-32-32-77.714 32-77.714 77.714-32 77.714 32 32 77.714zM512 838.286q1.143 16-9.714 27.429-10.286 12-26.857 12h-77.143q-14.286 0-24.571-9.429t-11.429-23.714q-12.571-130.857-105.429-223.714t-223.714-105.429q-14.286-1.143-23.714-11.429t-9.429-24.571v-77.143q0-16.571 12-26.857 9.714-9.714 24.571-9.714h2.857q91.429 7.429 174.857 46t148 103.714q65.143 64.571 103.714 148t46 174.857zM804.571 839.429q1.143 15.429-10.286 26.857-10.286 11.429-26.286 11.429h-81.714q-14.857 0-25.429-10t-11.143-24.286q-6.857-122.857-57.714-233.429t-132.286-192-192-132.286-233.429-58.286q-14.286-0.571-24.286-11.143t-10-24.857v-81.714q0-16 11.429-26.286 10.286-10.286 25.143-10.286h1.714q149.714 7.429 286.571 68.571t243.143 168q106.857 106.286 168 243.143t68.571 286.571z"></path>
</symbol>
<symbol id="icon-site" viewBox="0 0 951 1024">
	<title>site</title>
	<path class="path1" d="M832 694.857q0-22.857-16-38.857l-118.857-118.857q-16-16-38.857-16-24 0-41.143 18.286 1.714 1.714 10.857 10.571t12.286 12.286 8.571 10.857 7.429 14.571 2 15.714q0 22.857-16 38.857t-38.857 16q-8.571 0-15.714-2t-14.571-7.429-10.857-8.571-12.286-12.286-10.571-10.857q-18.857 17.714-18.857 41.714 0 22.857 16 38.857l117.714 118.286q15.429 15.429 38.857 15.429 22.857 0 38.857-14.857l84-83.429q16-16 16-38.286zM430.286 292q0-22.857-16-38.857l-117.714-118.286q-16-16-38.857-16-22.286 0-38.857 15.429l-84 83.429q-16 16-16 38.286 0 22.857 16 38.857l118.857 118.857q15.429 15.429 38.857 15.429 24 0 41.143-17.714-1.714-1.714-10.857-10.571t-12.286-12.286-8.571-10.857-7.429-14.571-2-15.714q0-22.857 16-38.857t38.857-16q8.571 0 15.714 2t14.571 7.429 10.857 8.571 12.286 12.286 10.571 10.857q18.857-17.714 18.857-41.714zM941.714 694.857q0 68.571-48.571 116l-84 83.429q-47.429 47.429-116 47.429-69.143 0-116.571-48.571l-117.714-118.286q-47.429-47.429-47.429-116 0-70.286 50.286-119.429l-50.286-50.286q-49.143 50.286-118.857 50.286-68.571 0-116.571-48l-118.857-118.857q-48-48-48-116.571t48.571-116l84-83.429q47.429-47.429 116-47.429 69.143 0 116.571 48.571l117.714 118.286q47.429 47.429 47.429 116 0 70.286-50.286 119.429l50.286 50.286q49.143-50.286 118.857-50.286 68.571 0 116.571 48l118.857 118.857q48 48 48 116.571z"></path>
</symbol>
<symbol id="icon-google-plus" viewBox="0 0 951 1024">
	<title>google-plus</title>
	<path class="path1" d="M420 454.857q0 20.571 18.286 40.286t44.286 38.857 51.714 42 44 59.429 18.286 81.143q0 51.429-27.429 98.857-41.143 69.714-120.571 102.571t-170.286 32.857q-75.429 0-140.857-23.714t-98-78.571q-21.143-34.286-21.143-74.857 0-46.286 25.429-85.714t67.714-65.714q74.857-46.857 230.857-57.143-18.286-24-27.143-42.286t-8.857-41.714q0-20.571 12-48.571-26.286 2.286-38.857 2.286-84.571 0-142.571-55.143t-58-139.714q0-46.857 20.571-90.857t56.571-74.857q44-37.714 104.286-56t124.286-18.286h238.857l-78.857 50.286h-74.857q42.286 36 64 76t21.714 91.429q0 41.143-14 74t-33.714 53.143-39.714 37.143-34 35.143-14 37.714zM336.571 400q21.714 0 44.571-9.429t37.714-24.857q30.286-32.571 30.286-90.857 0-33.143-9.714-71.429t-27.714-74-48.286-59.143-66.857-23.429q-24 0-47.143 11.143t-37.429 30q-26.857 33.714-26.857 91.429 0 26.286 5.714 55.714t18 58.857 29.714 52.857 42.857 38.286 55.143 14.857zM337.714 898.857q33.143 0 63.714-7.429t56.571-22.286 41.714-41.714 15.714-62.286q0-14.286-4-28t-8.286-24-15.429-23.714-16.857-20-22-19.714-20.857-16.571-23.714-17.143-20.857-14.857q-9.143-1.143-27.429-1.143-30.286 0-60 4t-61.429 14.286-55.429 26.286-39.143 42.571-15.429 60.286q0 40 20 70.571t52.286 47.429 68 25.143 72.857 8.286zM800.571 398.286h121.714v61.714h-121.714v125.143h-60v-125.143h-121.143v-61.714h121.143v-124h60v124z"></path>
</symbol>
<symbol id="icon-linkedin" viewBox="0 0 1024 1024">
	<title>linkedin</title>
	<path class="path1" d="M199.429 357.143v566.286h-188.571v-566.286h188.571zM211.429 182.286q0.571 41.714-28.857 69.714t-77.429 28h-1.143q-46.857 0-75.429-28t-28.571-69.714q0-42.286 29.429-70t76.857-27.714 76 27.714 29.143 70zM877.714 598.857v324.571h-188v-302.857q0-60-23.143-94t-72.286-34q-36 0-60.286 19.714t-36.286 48.857q-6.286 17.143-6.286 46.286v316h-188q1.143-228 1.143-369.714t-0.571-169.143l-0.571-27.429h188v82.286h-1.143q11.429-18.286 23.429-32t32.286-29.714 49.714-24.857 65.429-8.857q97.714 0 157.143 64.857t59.429 190z"></path>
</symbol>
<symbol id="icon-direction" viewBox="0 0 1024 1024">
	<title>direction</title>
	<path class="path1" d="M597.333 170.667l97.92 97.92-122.88 122.667 60.373 60.373 122.667-122.88 97.92 97.92v-256zM426.667 170.667h-256v256l97.92-97.92 200.747 200.96v323.627h85.333v-359.040l-225.92-225.707z"></path>
</symbol>
<symbol id="icon-email" viewBox="0 0 1024 1024">
	<title>email</title>
	<path class="path1" d="M853.333 170.667h-682.667c-47.147 0-84.907 38.187-84.907 85.333l-0.427 512c0 47.147 38.187 85.333 85.333 85.333h682.667c47.147 0 85.333-38.187 85.333-85.333v-512c0-47.147-38.187-85.333-85.333-85.333zM853.333 341.333l-341.333 213.333-341.333-213.333v-85.333l341.333 213.333 341.333-213.333v85.333z"></path>
</symbol>
<symbol id="icon-directions" viewBox="0 0 1024 1024">
	<title>directions</title>
	<path class="path1" d="M926.080 481.92l-384-384c-16.64-16.64-43.733-16.64-60.16 0l-384 384c-16.64 16.64-16.64 43.733 0 60.373l384 384c16.64 16.64 43.733 16.64 60.373 0l384-384c16.64-16.853 16.64-43.733-0.213-60.373zM597.333 618.667v-106.667h-170.667v128h-85.333v-170.667c0-23.68 18.987-42.667 42.667-42.667h213.333v-106.667l149.333 149.333-149.333 149.333z"></path>
</symbol>
<symbol id="icon-bicycling" viewBox="0 0 1024 1024">
	<title>bicycling</title>
	<path class="path1" d="M682.667 204.8c42.24 0 76.8-34.347 76.8-76.8s-34.56-76.8-76.8-76.8c-42.453 0-76.8 34.347-76.8 76.8s34.347 76.8 76.8 76.8zM810.667 512c-117.76 0-213.333 95.573-213.333 213.333s95.573 213.333 213.333 213.333 213.333-95.573 213.333-213.333-95.573-213.333-213.333-213.333zM810.667 874.667c-82.56 0-149.333-66.773-149.333-149.333s66.773-149.333 149.333-149.333 149.333 66.773 149.333 149.333-66.773 149.333-149.333 149.333zM631.467 426.667h179.2v-76.8h-136.533l-82.56-139.307c-12.587-21.333-35.84-35.627-62.507-35.627-20.053 0-38.187 8.107-51.2 21.333l-157.867 157.653c-13.227 13.227-21.333 31.36-21.333 51.413 0 26.88 14.293 49.493 36.267 62.72l142.933 86.613v213.333h76.8v-276.48l-96-71.253 98.987-99.413 73.813 105.813zM213.333 512c-117.76 0-213.333 95.573-213.333 213.333s95.573 213.333 213.333 213.333 213.333-95.573 213.333-213.333-95.573-213.333-213.333-213.333zM213.333 874.667c-82.56 0-149.333-66.773-149.333-149.333s66.773-149.333 149.333-149.333 149.333 66.773 149.333 149.333-66.773 149.333-149.333 149.333z"></path>
</symbol>
<symbol id="icon-transit" viewBox="0 0 1024 1024">
	<title>transit</title>
	<path class="path1" d="M170.667 682.667c0 37.76 16.64 71.253 42.667 94.72v75.947c0 23.467 19.2 42.667 42.667 42.667h42.667c23.68 0 42.667-19.2 42.667-42.667v-42.667h341.333v42.667c0 23.467 18.987 42.667 42.667 42.667h42.667c23.467 0 42.667-19.2 42.667-42.667v-75.947c26.027-23.467 42.667-56.96 42.667-94.72v-426.667c0-149.333-152.747-170.667-341.333-170.667s-341.333 21.333-341.333 170.667v426.667zM320 725.333c-35.413 0-64-28.587-64-64s28.587-64 64-64 64 28.587 64 64-28.587 64-64 64zM704 725.333c-35.413 0-64-28.587-64-64s28.587-64 64-64 64 28.587 64 64-28.587 64-64 64zM768 469.333h-512v-213.333h512v213.333z"></path>
</symbol>
<symbol id="icon-driving" viewBox="0 0 1024 1024">
	<title>driving</title>
	<path class="path1" d="M807.253 256.427c-8.747-25.173-32.64-43.093-60.587-43.093h-469.333c-27.947 0-51.84 17.92-60.587 43.093l-88.747 255.573v341.333c0 23.467 19.2 42.667 42.667 42.667h42.667c23.68 0 42.667-19.2 42.667-42.667v-42.667h512v42.667c0 23.467 19.2 42.667 42.667 42.667h42.667c23.68 0 42.667-19.2 42.667-42.667v-341.333l-88.747-255.573zM277.333 682.667c-35.413 0-64-28.587-64-64s28.587-64 64-64 64 28.587 64 64-28.587 64-64 64zM746.667 682.667c-35.413 0-64-28.587-64-64s28.587-64 64-64 64 28.587 64 64-28.587 64-64 64zM213.333 469.333l64-192h469.333l64 192h-597.333z"></path>
</symbol>
<symbol id="icon-walking" viewBox="0 0 1024 1024">
	<title>walking</title>
	<path class="path1" d="M597.333 162.133c42.24 0 76.8-34.347 76.8-76.8s-34.56-76.8-76.8-76.8c-42.453 0-76.8 34.347-76.8 76.8s34.347 76.8 76.8 76.8zM602.453 426.667h208.213v-76.8h-154.667l-85.333-142.080c-12.587-21.333-35.84-35.413-62.293-35.413-7.253 0-14.293 1.067-20.907 2.987l-231.467 72.107v221.867h76.8v-156.373l89.813-27.947-166.613 653.653h76.8l122.453-346.027 99.413 132.693v213.333h76.8v-273.28l-106.24-193.707 31.36-122.453 45.867 77.44z"></path>
</symbol>
<symbol id="icon-geolocation" viewBox="0 0 1024 1024">
	<title>geolocation</title>
	<path class="path1" d="M512 341.333c-94.293 0-170.667 76.373-170.667 170.667s76.373 170.667 170.667 170.667 170.667-76.373 170.667-170.667-76.373-170.667-170.667-170.667zM893.44 469.333c-19.627-177.92-160.853-319.147-338.773-338.773v-87.893h-85.333v87.893c-177.92 19.627-319.147 160.853-338.773 338.773h-87.893v85.333h87.893c19.627 177.92 160.853 319.147 338.773 338.773v87.893h85.333v-87.893c177.92-19.627 319.147-160.853 338.773-338.773h87.893v-85.333h-87.893zM512 810.667c-164.907 0-298.667-133.76-298.667-298.667s133.76-298.667 298.667-298.667 298.667 133.76 298.667 298.667-133.76 298.667-298.667 298.667z"></path>
</symbol>
<symbol id="icon-flag" viewBox="0 0 1024 1024">
	<title>flag</title>
	<path class="path1" d="M768 341.333c0-141.44-114.56-256-256-256s-256 114.56-256 256c0 192 256 469.333 256 469.333s256-277.333 256-469.333zM426.667 341.333c0-47.147 38.187-85.333 85.333-85.333s85.333 38.187 85.333 85.333-38.187 85.333-85.333 85.333-85.333-38.187-85.333-85.333zM213.333 853.333v85.333h597.333v-85.333h-597.333z"></path>
</symbol>
<symbol id="icon-cross" viewBox="0 0 1024 1024">
	<title>cross</title>
	<path class="path1" d="M810.667 273.707l-60.373-60.373-238.293 238.293-238.293-238.293-60.373 60.373 238.293 238.293-238.293 238.293 60.373 60.373 238.293-238.293 238.293 238.293 60.373-60.373-238.293-238.293z"></path>
</symbol>
<symbol id="icon-arrow-down" viewBox="0 0 1024 1024">
	<title>arrow-down</title>
	<path class="path1" d="M707.627 366.293l-195.627 195.627-195.627-195.627-60.373 60.373 256 256 256-256z"></path>
</symbol>
<symbol id="icon-menu" viewBox="0 0 1024 1024">
	<title>menu</title>
	<path class="path1" d="M128 768h768v-85.333h-768v85.333zM128 554.667h768v-85.333h-768v85.333zM128 256v85.333h768v-85.333h-768z"></path>
</symbol>
<symbol id="icon-star" viewBox="0 0 1024 1024">
	<title>star</title>
	<path class="path1" d="M512 736.853l263.68 159.147-69.973-299.947 232.96-201.813-306.773-26.027-119.893-282.88-119.893 282.88-306.773 26.027 232.96 201.813-69.973 299.947z"></path>
</symbol>
</defs>
</svg>
